<?xml version="1.0" encoding="UTF-8"?>
<svg id="Layer_1" data-name="Layer 1" xmlns="http://www.w3.org/2000/svg" viewBox="0 0 595.28 134.28">
  <defs>
    <style>
      .cls-1 {
        fill: #4d4948;
      }

      .cls-1, .cls-2 {
        fill-rule: evenodd;
      }

      .cls-2 {
        fill: #2c3e50;
      }
    </style>
  </defs>
  <path class="cls-2" d="M112.64,98.12c3.85,2.71,8.23,4.81,13.05,6.1,12.54,3.36,25.28.54,35-6.58.08-.05.17-.1.25-.15-11.31,10.16-27.37,14.58-43.15,10.35-3.4-.91-6.61-2.17-9.6-3.74,1.45-2.06,2.94-4.06,4.45-5.98h0ZM116.3,57.89c15.34-21.01,34.7-30.43,44.05-29.22-2.78-3.42-6.51-5.72-9.46-6.9-13.2.87-27.9,19.69-34.6,36.12h0ZM105.84,82c12.01-25.55,38.14-49.34,59.18-49.62,4.43,3.89,6.84,6.76,9.09,12.9-16-7.62-43.17,3.4-68.27,36.72h0ZM93.97,117.9c31.93-62.46,99.16-80.84,73.96-27.92,16.8-22.41,14.81-35.98,5.33-39.89-3.63-1.5-7.66-1.32-11.47-.8-28.52,3.9-61.54,37.89-67.83,68.61h0ZM141.87,17.97c1.01.27,2.01.57,2.99.91-16.53-2.42-32.72,5.13-41.68,18.66-5.82,8.79-8.79,20.17-7.83,30.68.64,6.92,3.02,13.5,6.82,19.17-1.84,2.83-3.51,5.72-5,8.65-11.51-11.37-16.75-28.42-12.27-45.16,6.65-24.81,32.16-39.54,56.98-32.9Z"/>
  <path class="cls-2" d="M213.14,49.41h14.73l.03,2c0,3.48-.52,5.93-1.56,7.33-1.04,1.4-3.31,2.1-6.82,2.1h-9.5c-4.28,0-7.11-.64-8.5-1.93-1.39-1.29-2.09-4.04-2.09-8.27v-1.26c0-4.41.52-7.43,1.56-9.09,1.04-1.65,3.56-2.47,7.57-2.47h5.7l2.75-.14,4.51.14c2.15,0,3.69.55,4.62,1.65.93,1.1,1.39,2.79,1.39,5.07h-2.75c0-1.99-.41-3.21-1.24-3.69-.82-.48-2.39-.72-4.69-.72h-7.29l-4.44.17c-.81,0-1.52.08-2.12.25-.6.17-1.11.41-1.54.72-.7.5-1.05,1.74-1.05,3.72l-.14,5.82c0,2.47.17,4.34.51,5.63.34,1.29,2.17,1.93,5.5,1.93h5.77l2.44.07h.51c1.13,0,2.5-.07,4.11-.2.84,0,1.52-.14,2.05-.43.53-.28.92-.69,1.17-1.22.45-.96.68-2.61.68-4.94h-11.88v-2.27h0ZM253.91,60.58h-20.64v-22.64h2.75v20.37h17.89v2.27h0ZM265.04,37.7h10.01c4.68,0,7.69.62,9.03,1.87,1.34,1.25,2,4.19,2,8.81v1.53c0,1.61-.09,3.31-.27,5.1-.18,1.79-.83,3.18-1.95,4.18-1.12,1-2.76,1.49-4.93,1.49l-2.61.14h-8.63c-1.34,0-2.65-.07-3.95-.2-1.3-.14-2.38-.38-3.25-.73-.87-.36-1.58-.97-2.12-1.86-.54-.89-.9-2.07-1.08-3.54-.07-.73-.12-1.5-.17-2.34-.05-.83-.07-1.74-.07-2.74v-3.95c0-.72.18-1.87.53-3.42.35-1.56,1.16-2.66,2.43-3.33,1.27-.67,2.94-1.01,5.02-1.01h0ZM265.61,58.31l5.86.14h2.83c1.68,0,3.31-.08,4.88-.24.77,0,1.43-.14,1.97-.42.55-.28.97-.68,1.26-1.18.55-.93.82-2.31.82-4.15v-6c0-.44-.01-.85-.03-1.26-.02-.4-.07-.79-.14-1.16-.09-1.05-.33-1.86-.71-2.41-.38-.55-.88-.92-1.49-1.1-.61-.18-1.27-.31-1.97-.38h-2.04l-5.33-.07-5.26.07c-2.58,0-4.28.33-5.09,1.01-.81.67-1.22,2.25-1.22,4.75l-.14,3.41v1.67c0,2.86.31,4.8.92,5.81.61,1.01,2.23,1.52,4.88,1.52h0ZM317.25,43.59c0,1.74-.27,2.91-.8,3.54-.53.62-1.68,1.1-3.45,1.44,1.88,0,3.18.4,3.92,1.21.73.8,1.1,2.21,1.1,4.2,0,2.43-.58,4.14-1.73,5.12-1.15.99-3.04,1.48-5.67,1.48h-18.84v-22.64h19.14c2.04,0,3.6.44,4.68,1.32,1.09.88,1.63,2.33,1.63,4.33h0ZM314.4,43.83c0-1.42-.32-2.37-.95-2.86-.63-.48-1.7-.72-3.19-.72h-15.72v7.37h15.31c1.63,0,2.79-.26,3.5-.78.7-.52,1.05-1.52,1.05-3.01h0ZM315.18,54.39c0-1-.07-1.8-.22-2.4-.15-.6-.49-1.07-1.04-1.41-.48-.25-1.03-.43-1.66-.54l-1.87-.14h-15.85v8.42h15.55c1.74,0,3.03-.27,3.85-.82.83-.54,1.24-1.58,1.24-3.1h0ZM322.72,60.59h-3.23s13.37-22.65,13.37-22.65h3.67l13.48,22.64h-3.16l-2.95-5.09h-18.28l-2.89,5.1h0ZM326.92,53.22h15.66l-7.88-13.24-7.78,13.24h0ZM373.12,60.58h-20.64v-22.64h2.75v20.37h17.89v2.27h0ZM384.83,60.59h-3.23s13.37-22.65,13.37-22.65h3.67l13.48,22.64h-3.16l-2.95-5.09h-18.28l-2.89,5.1h0ZM389.03,53.22h15.66l-7.88-13.24-7.78,13.24h0ZM441,53.52c0,3.17-.64,5.17-1.92,5.96-1.28.8-3.69,1.2-7.25,1.2l-4.55.14-6.48-.14c-2.24,0-3.88-.49-4.9-1.48-1.03-.98-1.54-2.59-1.54-4.83v-16.41h2.75v16.02c0,1.78.41,2.94,1.22,3.47.86.49,2.25.74,4.17.74l4.85.17,5.26-.17c2.13,0,3.6-.26,4.41-.77.81-.52,1.22-1.74,1.22-3.65v-15.81h2.75v15.55h0ZM475.05,48.94c0,1.06-.03,2.04-.1,2.92-.07.88-.19,1.79-.37,2.72-.32,1.7-.92,3-1.8,3.9-.88.9-1.95,1.49-3.19,1.76-.54.09-1.22.17-2.02.24-.8.07-1.61.1-2.43.1h-17.99v-22.61h18.91c3.67,0,6.08.85,7.23,2.55.59.86,1.03,1.98,1.32,3.36.29,1.38.44,3.07.44,5.06h0ZM472.2,48.97c0-3.19-.4-5.43-1.19-6.72-.75-1.34-2.6-2-5.57-2h-15.55v18.06h15.27c3.15,0,5.1-.7,5.87-2.09.77-1.39,1.15-3.81,1.15-7.25h0ZM483.43,60.58h-2.75v-22.64h2.75v22.64h0ZM497.76,60.58v-20.33h-11.4v-2.31h25.63v2.31h-11.47v20.33h-2.75Z"/>
  <path class="cls-1" d="M209.73,78.58c1.41.45,2.12,1.31,2.12,2.58,0,.84-.29,1.51-.87,2-.58.49-1.38.74-2.39.74h-8.15v-10.38h8.07c.96,0,1.7.24,2.23.71.53.47.8,1.12.8,1.94,0,1.16-.6,1.96-1.81,2.41h0ZM208.46,78.17c.6,0,1.1-.19,1.49-.56.39-.37.59-.85.59-1.42,0-.53-.17-.96-.51-1.29-.34-.33-.79-.5-1.36-.5h-7.3v3.77h7.08ZM208.59,83.01c1.54,0,2.31-.64,2.31-1.91,0-.63-.21-1.12-.62-1.49-.41-.37-.97-.55-1.67-.55h-7.24v3.94h7.21ZM238.16,80.65c0,1.05-.49,1.9-1.46,2.54-.99.67-2.33,1-4,1s-2.99-.33-3.99-.99c-1-.66-1.5-1.51-1.5-2.55v-7.14h.93v6.79c0,2,1.52,3,4.56,3s4.53-1,4.53-3v-6.79h.93v7.14h0ZM255.05,83.9h-.93v-10.38h.93v10.38h0ZM279.82,83.9h-8.95v-10.38h.93v9.49h8.02v.89h0ZM299.93,73.51c1.7,0,3.04.48,4.02,1.43.98.95,1.47,2.24,1.47,3.88,0,1.46-.49,2.67-1.47,3.64-.98.96-2.21,1.44-3.68,1.44h-6.53v-10.38h6.18ZM300.35,83.01c1.17,0,2.13-.42,2.9-1.25.74-.81,1.1-1.8,1.1-2.98,0-1.3-.39-2.36-1.18-3.16-.79-.81-1.82-1.21-3.09-1.21h-5.39v8.6h5.66ZM321.71,83.9h-.93v-10.38h.93v10.38h0ZM348.55,83.9h-1.33l-8.75-9.48v9.48h-.93v-10.38h1.35l8.73,9.48v-9.48h.93v10.38h0ZM376.37,78.75c-.11,1.38-.46,2.45-1.06,3.22-1.19,1.49-2.91,2.23-5.16,2.23-1.75,0-3.2-.48-4.36-1.43-1.26-1.04-1.89-2.4-1.89-4.07s.64-2.99,1.91-4.04c1.18-.97,2.62-1.46,4.34-1.46,2.18,0,3.92.73,5.22,2.18l-.86.54c-1.2-1.22-2.66-1.84-4.36-1.84-1.45,0-2.67.41-3.64,1.22-1.07.89-1.61,2.02-1.61,3.41s.48,2.49,1.45,3.34c.97.85,2.23,1.27,3.8,1.27,1.35,0,2.46-.31,3.33-.94.87-.63,1.46-1.54,1.76-2.73h-5.51v-.89h6.64ZM404.72,74.4h-4.96v9.49h-.93v-9.49h-4.96v-.89h10.86v.89h0ZM429.6,83.9h-1.14l-3.22-4.26h-5.67v4.26h-.93v-10.38h7.83c.96,0,1.72.28,2.28.84.56.56.85,1.31.85,2.26,0,.89-.27,1.6-.81,2.13-.54.53-1.31.83-2.32.9l3.13,4.26h0ZM426.41,78.75c.69,0,1.22-.19,1.6-.57.38-.38.57-.92.57-1.61,0-1.44-.84-2.17-2.51-2.17h-6.48v4.35h6.83ZM455.97,80.65c0,1.05-.49,1.9-1.46,2.54-.99.67-2.33,1-4,1s-2.99-.33-3.99-.99c-1-.66-1.5-1.51-1.5-2.55v-7.14h.93v6.79c0,2,1.52,3,4.56,3s4.53-1,4.53-3v-6.79h.93v7.14h0ZM480.88,75.16c-1.25-.68-2.69-1.02-4.32-1.02-1.29,0-2.28.17-2.96.52-.68.35-1.03.84-1.03,1.48s.33,1.08.99,1.34c.58.24,1.57.38,2.97.44,1.2.05,2,.1,2.42.14.76.08,1.38.21,1.84.42,1.01.44,1.52,1.21,1.52,2.31s-.46,1.87-1.38,2.46c-.92.59-2.24.88-3.97.88-2.33,0-4.24-.51-5.71-1.53l.54-.79c1.51.96,3.16,1.43,4.96,1.43,1.43,0,2.54-.21,3.31-.64.77-.43,1.15-1.01,1.15-1.77,0-.7-.35-1.21-1.05-1.52-.62-.27-1.68-.45-3.17-.51-1.1-.05-1.86-.1-2.29-.14-.72-.07-1.29-.18-1.71-.34-1.01-.38-1.52-1.08-1.52-2.08,0-.94.43-1.67,1.3-2.2.87-.53,2.11-.8,3.71-.8,2.17,0,3.85.4,5.03,1.19l-.66.72h0ZM505.83,74.4h-4.96v9.49h-.93v-9.49h-4.96v-.89h10.86v.89Z"/>
</svg>